<svg width="13" height="9" viewBox="0 0 13 9" fill="none" xmlns="http://www.w3.org/2000/svg">
<path fill-rule="evenodd" clip-rule="evenodd" d="M8.60026 8.288C8.36903 8.05677 8.36903 7.68187 8.60026 7.45064L10.7473 5.30356L1.1248 5.30356C0.797784 5.30356 0.53269 5.03847 0.53269 4.71145C0.53269 4.38444 0.797784 4.11935 1.1248 4.11935L10.7474 4.11935L8.60026 1.97221C8.36903 1.74098 8.36903 1.36608 8.60026 1.13485C8.83149 0.903618 9.20639 0.903618 9.43762 1.13485L12.5804 4.27765C12.6968 4.38577 12.7695 4.54011 12.7695 4.71146C12.7695 4.8832 12.6964 5.03787 12.5796 5.14602L9.43762 8.288C9.20639 8.51923 8.83149 8.51923 8.60026 8.288Z" fill="#2F2F2F"/>
</svg>
