<svg width="13" height="9" viewBox="0 0 13 9" fill="none" xmlns="http://www.w3.org/2000/svg">
<path fill-rule="evenodd" clip-rule="evenodd" d="M4.39974 0.711999C4.63097 0.94323 4.63097 1.31813 4.39974 1.54936L2.25266 3.69644L11.8752 3.69644C12.2022 3.69644 12.4673 3.96154 12.4673 4.28855C12.4673 4.61556 12.2022 4.88065 11.8752 4.88065L2.25261 4.88065L4.39974 7.02779C4.63097 7.25902 4.63097 7.63392 4.39974 7.86515C4.16851 8.09638 3.79361 8.09638 3.56238 7.86515L0.419582 4.72235C0.303249 4.61423 0.230468 4.45989 0.230468 4.28854C0.230468 4.1168 0.303589 3.96213 0.420398 3.85398L3.56238 0.711998C3.79361 0.480767 4.16851 0.480767 4.39974 0.711999Z" fill="#2F2F2F"/>
</svg>
