<svg width="13" height="13" viewBox="0 0 13 13" fill="none" xmlns="http://www.w3.org/2000/svg">
<g clip-path="url(#clip0)">
<path d="M7.37708 12.9746H5.29118C4.94276 12.9746 4.65934 12.6917 4.65934 12.344V7.64833H3.44238C3.09397 7.64833 2.81055 7.36537 2.81055 7.01773V5.00562C2.81055 4.65789 3.09397 4.37502 3.44238 4.37502H4.65934V3.36743C4.65934 2.36837 4.97367 1.51838 5.56824 0.9095C6.16549 0.297844 7.00015 -0.0253906 7.98199 -0.0253906L9.5728 -0.0228119C9.92062 -0.0222168 10.2035 0.260651 10.2035 0.607788V2.47598C10.2035 2.82372 9.92022 3.10658 9.57191 3.10658L8.50083 3.10698C8.17418 3.10698 8.091 3.17234 8.07321 3.19238C8.0439 3.2256 8.00902 3.31953 8.00902 3.57889V4.37492H9.49141C9.60301 4.37492 9.71113 4.4024 9.80405 4.45417C10.0045 4.56595 10.1291 4.77731 10.1291 5.00572L10.1283 7.01783C10.1283 7.36537 9.84489 7.64823 9.49648 7.64823H8.00902V12.344C8.00902 12.6917 7.7255 12.9746 7.37708 12.9746ZM5.42295 12.2125H7.24531V7.30715C7.24531 7.07496 7.43462 6.88612 7.66716 6.88612H9.36471L9.3654 5.13714H7.66706C7.43452 5.13714 7.24531 4.9483 7.24531 4.71611V3.57889C7.24531 3.28114 7.27562 2.94254 7.50081 2.68803C7.7729 2.38037 8.20171 2.34486 8.50063 2.34486L9.43994 2.34447V0.739105L7.98139 0.736725C6.40349 0.736725 5.42295 1.74481 5.42295 3.36743V4.71611C5.42295 4.9482 5.23374 5.13714 5.0012 5.13714H3.57415V6.88612H5.0012C5.23374 6.88612 5.42295 7.07496 5.42295 7.30715V12.2125ZM9.57131 0.739304H9.57141H9.57131Z" fill="#2F2F2F"/>
</g>
<defs>
<clipPath id="clip0">
<rect width="13" height="13" fill="white"/>
</clipPath>
</defs>
</svg>
