<svg width="12" height="12" viewBox="0 0 12 12" fill="none" xmlns="http://www.w3.org/2000/svg">
<g clip-path="url(#clip0)">
<path d="M11.7985 5.36451L10.7847 4.44081V1.37793C10.7847 1.18305 10.6267 1.02503 10.4318 1.02503H7.99162C7.79674 1.02503 7.63872 1.18302 7.63872 1.37793V1.57419L6.41444 0.458639C6.17812 0.243271 5.82175 0.243295 5.58553 0.458615L0.201512 5.36453C0.0122308 5.53703 -0.0503239 5.80281 0.0421605 6.04162C0.134668 6.28042 0.359903 6.43471 0.616004 6.43471H1.4759V11.35C1.4759 11.5449 1.63389 11.7029 1.8288 11.7029H4.77989C4.97477 11.7029 5.13279 11.545 5.13279 11.35V8.36561H6.86718V11.3501C6.86718 11.545 7.02518 11.703 7.22008 11.703H10.1711C10.3659 11.703 10.5239 11.545 10.5239 11.3501V6.43473H11.384C11.6401 6.43473 11.8653 6.28042 11.9579 6.04164C12.0503 5.80281 11.9878 5.53703 11.7985 5.36451ZM10.1711 5.72894C9.97617 5.72894 9.81815 5.88693 9.81815 6.08183V10.9972H7.573V8.01271C7.573 7.81783 7.41499 7.65981 7.22011 7.65981H4.77989C4.585 7.65981 4.42699 7.8178 4.42699 8.01271V10.9972H2.18168V6.08183C2.18168 5.88695 2.02368 5.72894 1.82878 5.72894H0.849489L6.00002 1.03581L7.75399 2.63404C7.8573 2.72816 8.00643 2.75242 8.13424 2.69601C8.26207 2.63952 8.34454 2.51291 8.34454 2.37318V1.73083H10.079V4.59667C10.079 4.69598 10.1208 4.79064 10.1942 4.85753L11.1505 5.72894H10.1711Z" fill="#5B5B5B"/>
</g>
<defs>
<clipPath id="clip0">
<rect width="12" height="12" fill="white"/>
</clipPath>
</defs>
</svg>
