<svg width="13" height="13" viewBox="0 0 13 13" fill="none" xmlns="http://www.w3.org/2000/svg">
<g clip-path="url(#clip0)">
<path d="M-4.14428e-07 3.519L-1.53819e-07 9.48102C-6.90019e-08 11.4214 1.57858 13 3.51898 13L9.4811 13C11.4214 13 13 11.4214 13 9.48102L13 3.5189C13 1.5786 11.4214 2.42963e-05 9.4811 2.43811e-05L3.51897 2.46417e-05C1.57858 2.47265e-05 -4.99245e-07 1.5786 -4.14428e-07 3.519H-4.14428e-07ZM9.4811 0.762138C11.0012 0.762138 12.2379 1.99884 12.2379 3.519L12.2379 9.48102C12.2379 11.0012 11.0012 12.2379 9.4811 12.2379L3.51898 12.2379C1.99881 12.2379 0.762114 11.0012 0.762114 9.48102L0.762114 3.5189C0.762114 1.99884 1.99881 0.762138 3.51897 0.762138L9.4811 0.762138Z" fill="#5B5B5B"/>
<path d="M2.94531 6.49962C2.94531 8.45965 4.53986 10.0542 6.49989 10.0542C8.45993 10.0542 10.0545 8.45965 10.0545 6.49962C10.0545 4.53958 8.45993 2.94504 6.49989 2.94504C4.53986 2.94504 2.94531 4.53958 2.94531 6.49962ZM9.29236 6.49962C9.29236 8.03932 8.03969 9.29209 6.49989 9.29209C4.96019 9.29209 3.70743 8.03932 3.70743 6.49962C3.70743 4.95982 4.96019 3.70715 6.49989 3.70715C8.03969 3.70715 9.29236 4.95982 9.29236 6.49962Z" fill="#5B5B5B"/>
<path d="M1.68359 2.86079C1.68359 3.44002 2.15481 3.91113 2.73393 3.91113C3.31315 3.91113 3.78436 3.44002 3.78436 2.86079C3.78436 2.28157 3.31315 1.81035 2.73393 1.81035C2.15471 1.81035 1.68359 2.28157 1.68359 2.86079ZM3.02215 2.86079C3.02215 3.01968 2.89282 3.14902 2.73393 3.14902C2.57494 3.14902 2.44571 3.01968 2.44571 2.86079C2.44571 2.7018 2.57494 2.57247 2.73393 2.57247C2.89282 2.57247 3.02215 2.7018 3.02215 2.86079Z" fill="#5B5B5B"/>
</g>
<defs>
<clipPath id="clip0">
<rect width="13" height="13" fill="white" transform="translate(0 13) rotate(-90)"/>
</clipPath>
</defs>
</svg>
