<svg width="59" height="59" viewBox="0 0 59 59" fill="none" xmlns="http://www.w3.org/2000/svg">
<path d="M0 6.91406V52.0859H59V6.91406H0ZM17.2776 29.5L3.45703 43.3205V15.6795L17.2776 29.5ZM4.97582 46.6907L19.722 31.9445L23.3888 35.6112C25.0212 37.2436 27.1915 38.1426 29.5 38.1426C31.8085 38.1426 33.9788 37.2436 35.6112 35.6112L39.278 31.9445L54.0241 46.6907C54.5805 47.2471 54.9945 47.908 55.2487 48.6289H3.75122C4.00543 47.908 4.41935 47.2471 4.97582 46.6907ZM41.7225 29.5L55.543 15.6795V43.3205L41.7225 29.5ZM54.0242 12.3093L33.1668 33.1668C32.1873 34.1461 30.8851 34.6855 29.5 34.6855C28.1149 34.6855 26.8127 34.1461 25.8332 33.1668L4.97582 12.3093C4.41935 11.7529 4.00543 11.092 3.75122 10.3711H55.2487C54.9946 11.092 54.5806 11.7529 54.0242 12.3093Z" fill="#E2E2E2"/>
<path d="M27.7715 13.8281H31.2285V17.2852H27.7715V13.8281Z" fill="#E2E2E2"/>
<path d="M34.6855 13.8281H38.1426V17.2852H34.6855V13.8281Z" fill="#E2E2E2"/>
<path d="M20.8574 13.8281H24.3145V17.2852H20.8574V13.8281Z" fill="#E2E2E2"/>
</svg>
