<svg width="61" height="61" viewBox="0 0 61 61" fill="none" xmlns="http://www.w3.org/2000/svg">
<path d="M56.9047 27.5133C54.3481 24.9099 50.9591 23.4028 47.3287 23.2466C47.3116 23.0198 47.2988 22.7071 47.2988 22.2793C47.2988 20.5265 48.6318 15.1708 49.4721 12.2067L50.3319 9.17383H39.8971L39.1981 10.3001C38.9209 10.7468 32.4062 21.4277 32.4062 37.5293C32.4062 45.4126 38.8198 51.8262 46.7031 51.8262C54.5864 51.8262 61 45.4126 61 37.5293C61 33.7596 59.5455 30.2025 56.9047 27.5133ZM46.7031 47.0605C41.4476 47.0605 37.1719 42.7848 37.1719 37.5293C37.1719 25.6963 41.084 16.9377 42.6299 13.9395H44.075C43.3903 16.6301 42.5332 20.3779 42.5332 22.2793C42.5332 23.7881 42.6452 25.0002 43.1922 26.012C43.6793 26.9132 44.6982 27.9865 46.7882 27.9979L46.8922 28.0005C52.0435 28.1004 56.2344 32.3749 56.2344 37.5293C56.2344 42.7848 51.9587 47.0605 46.7031 47.0605Z" fill="#E2E2E2"/>
<path d="M24.4984 27.5133C21.9419 24.9099 18.5528 23.4028 14.9225 23.2466C14.9053 23.0198 14.8926 22.7071 14.8926 22.2793C14.8926 20.5265 16.2255 15.1708 17.0658 12.2067L17.9257 9.17383H7.49085L6.79185 10.3001C6.51461 10.7468 0 21.4277 0 37.5293C0 45.4126 6.41358 51.8262 14.2969 51.8262C22.1802 51.8262 28.5938 45.4126 28.5938 37.5293C28.5938 33.7596 27.1393 30.2025 24.4984 27.5133ZM14.2969 47.0605C9.04134 47.0605 4.76562 42.7848 4.76562 37.5293C4.76562 25.6963 8.67773 16.9377 10.2237 13.9395H11.6688C10.9841 16.6301 10.127 20.3779 10.127 22.2793C10.127 23.7881 10.2389 25.0002 10.7859 26.012C11.2731 26.9132 12.292 27.9865 14.3819 27.9979L14.486 28.0005C19.6372 28.1004 23.8281 32.3749 23.8281 37.5293C23.8281 42.7848 19.5524 47.0605 14.2969 47.0605Z" fill="#E2E2E2"/>
</svg>
