<svg width="41" height="41" viewBox="0 0 41 41" fill="none" xmlns="http://www.w3.org/2000/svg">
<g clip-path="url(#clip0)">
<path d="M20.5002 0.477051C9.45862 0.477051 0.476562 9.45911 0.476562 20.5006C0.476562 21.0409 0.501604 21.6049 0.549304 22.1785H18.3858V22.417C18.3676 25.5846 17.1855 28.635 15.0645 30.9878C12.9435 33.3405 10.0316 34.8315 6.88278 35.177C10.5786 38.6231 15.4469 40.5344 20.5002 40.523C31.5405 40.523 40.5225 31.541 40.5225 20.5006C40.5225 9.4603 31.5405 0.477051 20.5002 0.477051Z" fill="#6D3795"/>
<path d="M20.5006 0C9.19671 0 0 9.19671 0 20.5006C0 21.1243 0.032199 21.7766 0.09421 22.4396L0.114483 22.6555H17.9057C17.7602 29.0438 12.7158 34.3314 6.32035 34.744L5.7873 34.7786L6.1689 35.1531C9.99263 38.9085 15.1411 41.0077 20.5006 40.9964C31.8057 41 41 31.8057 41 20.5006C41 9.19552 31.8057 0 20.5006 0ZM20.5006 40.523C15.4466 40.534 10.5778 38.6219 6.88203 35.1745C10.0308 34.8291 12.9427 33.3381 15.0637 30.9854C17.1847 28.6326 18.3668 25.5822 18.3851 22.4146V22.1761H0.549751C0.502051 21.6025 0.477009 21.0384 0.477009 20.4982C0.477009 9.45668 9.45906 0.474622 20.5006 0.474622C31.5421 0.474622 40.523 9.45906 40.523 20.5006C40.523 31.5421 31.5409 40.523 20.5006 40.523Z" fill="#030305"/>
</g>
<defs>
<clipPath id="clip0">
<rect width="41" height="41" fill="white"/>
</clipPath>
</defs>
</svg>
